# Blender 3.1.0
# www.blender.org
mtllib left-wing.mtl
o dragon
v 8.778300 16.285698 3.821322
v 8.786300 16.299004 3.920122
v 8.872100 16.247704 3.920122
v 8.864100 16.234299 3.821322
v 0.892000 2.037399 5.928917
v 0.971800 2.170898 6.916718
v 0.033900 2.550900 5.928918
v 0.113800 2.684399 6.916718
v 0.249200 1.937099 6.500618
v 18.802500 30.562401 10.644627
v 18.781500 30.532501 10.737726
v 18.863300 30.475098 10.737726
v 18.884300 30.504898 10.644627
v 9.606700 16.509598 3.587522
v 9.397100 16.211098 4.518622
v 8.788300 17.084198 3.587522
v 8.578700 16.785797 4.518622
v 8.825200 16.266701 3.870722
v 47.708401 19.814400 14.869524
v 47.695599 19.819099 14.968523
v 47.660599 19.725403 14.968523
v 47.673401 19.720703 14.869524
v 19.186399 29.862701 10.250126
v 19.058500 29.910400 11.240726
v 19.535801 30.799698 10.250126
v 19.407900 30.847397 11.240726
v 18.833099 30.528099 10.677226
v 79.515099 -6.734699 15.122315
v 79.514603 -6.734299 15.222315
v 79.450600 -6.811100 15.222315
v 79.450996 -6.811501 15.122315
v 47.750301 19.063698 14.422123
v 47.745602 19.067596 15.422124
v 48.391102 19.831398 14.422123
v 48.386398 19.835297 15.422124
v 47.684502 19.769897 14.919024
v 26.884199 -2.460793 -17.169584
v 26.899200 -2.522392 -17.092285
v 26.802000 -2.545891 -17.092285
v 26.787100 -2.484291 -17.169584
v 18.363300 30.323502 10.001526
v 18.512800 29.707603 10.775026
v 19.335100 30.559303 10.001526
v 19.484600 29.943398 10.775026
v 18.832701 30.509300 10.705126
v -2.129500 1.727501 0.918417
v 2.074900 -1.939800 -0.049084
v 0.966300 -0.183399 2.055516
v 22.515400 16.438202 -2.364078
v 29.927898 8.542206 -8.519481
v 35.177399 6.214207 -7.258080
v 14.285299 19.013000 4.691523
v 14.045200 13.621696 -0.375480
v 19.847799 25.062302 8.683524
v 13.769400 22.785599 6.981524
v 18.218599 30.888397 12.028927
v 5.015600 13.615402 3.679522
v 6.386400 12.231201 4.391720
v 0.325300 1.537800 4.982118
v 6.226600 9.288601 3.047520
v 6.199400 7.558201 2.476920
v 13.522200 24.228500 5.408224
v 18.091900 31.995399 10.561828
v 20.950500 28.225304 5.923426
v 14.959700 22.643799 1.975924
v 23.571699 18.876297 -4.613577
v 36.233601 8.652206 -9.508081
v 14.819901 16.574799 -4.716578
v 4.671500 1.741901 -3.039083
v 71.571602 -3.197399 10.055716
v 62.464798 -3.882000 0.063916
v 54.706699 5.442799 -1.757981
v 52.563599 2.068501 -0.917583
v 78.919601 0.339092 24.645414
v 70.055603 3.418201 13.742818
v 70.997299 4.704800 18.243919
v 70.208900 0.965900 16.626417
v -2.557600 4.051399 5.039818
v 0.412000 4.289398 -0.415682
v 1.966800 2.723499 -4.684783
v 4.367600 -0.654991 -7.349083
v 35.707298 2.637909 -11.561081
v 41.628399 1.475307 -7.457483
v 42.684399 3.913307 -9.707781
v 39.477901 6.319008 -6.739482
v 45.125301 3.062008 -7.003483
v 53.681301 -1.965092 -5.669684
v 42.782700 -0.202194 -10.264484
v 26.045401 7.019508 -8.937681
v 36.649101 0.657108 -13.610186
v 28.309299 3.526108 -13.384180
v 21.440100 7.074608 -10.175581
v 26.237499 26.224403 10.803726
v 27.202202 28.331001 13.967726
v 34.174400 25.959999 15.633924
v 33.334301 22.488602 10.689425
v 25.565001 24.406197 8.360624
v 40.891899 24.195099 15.918624
v 40.294998 19.535797 11.776123
v 49.995300 19.945099 17.316624
v 49.988899 15.308296 14.015522
v 57.897701 16.194801 20.101921
v 57.480900 12.043598 15.844820
v 52.491501 12.397999 10.438021
v 62.611298 9.225498 13.929820
v 65.923599 8.983501 17.551918
v 69.355904 11.344891 26.927519
v 40.569801 17.095703 7.892022
v 57.890202 14.679100 13.713421
v 49.589298 18.829803 10.860523
v 41.969898 22.446198 9.798223
v 34.398602 24.886803 8.388524
v 34.785500 27.226196 15.111125
v 27.296799 28.645103 8.530626
v 26.543200 30.186798 12.283827
v 5.946400 11.420101 -3.603479
v 34.590401 27.650299 16.086325
v 26.621201 26.840302 6.104326
v 8.542700 4.906208 -12.848480
v 32.820499 19.097397 -2.368877
v 8.212700 1.279209 -13.047585
v 15.586599 1.264507 -15.380684
v 8.188100 4.223606 -7.888183
v 12.612400 6.709209 -11.840080
v 0.977800 -0.183399 2.055516
v 16.771200 6.042206 -8.892481
v 18.117100 3.521107 -14.043581
v 26.679501 1.169708 -14.290985
v 17.827400 8.479309 -11.141380
v 27.101601 9.457508 -11.187580
v 45.370701 10.141006 -4.739681
v 42.681499 13.440201 -0.125080
v 43.110500 17.757599 3.169622
v 50.687199 8.024300 2.478020
v 57.154900 4.832100 4.614618
v 42.733101 6.648201 -2.983181
v 52.543701 -0.026691 -5.100583
v 64.065300 0.635201 6.167616
v 31.694801 16.520103 0.025122
v 40.766899 14.650002 4.622722
v 32.953400 20.819603 6.957424
v 52.437901 12.361698 10.477120
v 52.386398 9.578201 8.075020
v 60.216400 5.601398 10.743618
v 61.916397 7.675400 9.393418
v 51.004002 14.080101 5.853322
v 41.196999 12.141602 1.351120
v 73.137604 -1.685600 14.975117
v 63.568298 1.688599 7.124517
v 34.179501 27.144096 16.606424
v 35.948700 26.661697 16.555225
v 34.014198 23.234398 4.677924
vn -0.2345 0.7182 -0.6551
vn -0.1434 0.8704 0.4710
vn 0.8348 0.2851 0.4710
vn 0.7438 0.1325 -0.6552
vn 0.3204 -0.7415 -0.5895
vn 0.4251 -0.5665 0.7060
vn -0.8049 -0.0681 -0.5895
vn -0.7001 0.1070 0.7060
vn -0.5073 -0.8476 0.1556
vn -0.0315 0.9482 -0.3160
vn -0.2710 0.6074 0.7468
vn 0.6634 -0.0483 0.7467
vn 0.9026 0.2920 -0.3162
vn 0.4724 -0.4675 -0.7472
vn 0.1977 -0.8586 0.4730
vn -0.6001 0.2855 -0.7472
vn -0.8747 -0.1055 0.4729
vn -0.5351 -0.7620 -0.3647
vn 0.8167 0.3074 -0.4883
vn 0.6703 0.3618 0.6479
vn 0.2690 -0.7126 0.6480
vn 0.4160 -0.7672 -0.4882
vn -0.4995 -0.5111 -0.6995
vn -0.6666 -0.4488 0.5951
vn -0.0429 0.7134 -0.6995
vn -0.2100 0.7757 0.5951
vn -0.9282 0.3461 -0.1365
vn 0.8184 0.0652 -0.5709
vn 0.8130 0.0698 0.5780
vn 0.0773 -0.8125 0.5779
vn 0.0821 -0.8168 -0.5710
vn -0.7104 -0.2573 -0.6551
vn -0.7165 -0.2522 0.6504
vn 0.1262 0.7450 -0.6551
vn 0.1200 0.7501 0.6504
vn -0.7677 0.6408 -0.0061
vn 0.5786 0.0511 -0.8140
vn 0.7505 -0.6566 0.0750
vn -0.3664 -0.9274 0.0751
vn -0.5382 -0.2194 -0.8138
vn -0.8020 0.5374 -0.2609
vn -0.6069 -0.2665 0.7488
vn 0.4665 0.8452 -0.2609
vn 0.6616 0.0413 0.7488
vn -0.1824 0.7517 0.6338
vn -0.5798 -0.7495 0.3193
vn -0.5799 -0.7493 0.3198
vn -0.5796 -0.7514 0.3155
vn 0.1086 -0.6574 0.7456
vn 0.3927 -0.9194 0.0226
vn -0.3108 -0.6474 0.6959
vn 0.3361 -0.5793 0.7426
vn 0.4696 -0.5762 0.6690
vn -0.0310 -0.6362 0.7709
vn -0.4759 -0.0912 0.8748
vn -0.4441 0.2561 0.8586
vn -0.7286 0.5940 0.3410
vn 0.0638 -0.1267 0.9899
vn 0.0421 -0.6193 0.7840
vn 0.5699 -0.3455 0.7455
vn 0.6363 -0.4505 0.6263
vn -0.7503 0.6468 -0.1368
vn -0.3894 0.9210 -0.0092
vn -0.0146 0.7811 -0.6243
vn -0.4227 0.6857 -0.5926
vn 0.0039 0.6618 -0.7496
vn 0.3116 0.5224 -0.7937
vn -0.3382 0.6264 -0.7023
vn 0.0626 -0.8313 0.5523
vn 0.1716 -0.9425 0.2867
vn 0.8165 -0.4917 0.3028
vn 0.7854 -0.2293 0.5750
vn 0.3561 -0.8068 -0.4715
vn 0.5434 0.6508 -0.5303
vn -0.4780 -0.6802 0.5558
vn 0.6637 -0.1132 0.7394
vn 0.6688 0.5089 -0.5419
vn 0.0490 0.7781 0.6262
vn -0.5897 -0.5665 0.5756
vn -0.8352 0.0991 0.5409
vn -0.7659 0.5007 -0.4034
vn -0.9574 -0.2259 -0.1801
vn -0.8137 0.1776 -0.5536
vn -0.0703 -0.9162 -0.3945
vn -0.4854 -0.5859 -0.6490
vn -0.2903 -0.5861 0.7565
vn 0.4585 0.5667 -0.6845
vn 0.4472 0.2008 0.8716
vn 0.4473 0.2009 0.8715
vn 0.4887 0.6787 0.5482
vn 0.9069 -0.3396 0.2494
vn -0.0127 -0.7856 -0.6186
vn -0.0142 -0.7019 0.7121
vn 0.7943 -0.5536 -0.2502
vn -0.3658 -0.6604 -0.6558
vn 0.8829 -0.4129 -0.2236
vn -0.2915 -0.7132 0.6375
vn -0.3292 -0.0690 0.9417
vn -0.1622 -0.6666 0.7275
vn -0.3571 -0.7733 0.5239
vn -0.1767 -0.7845 0.5944
vn 0.1386 0.4864 0.8627
vn -0.4128 -0.6922 0.5920
vn 0.0558 0.5462 0.8358
vn -0.4438 -0.6968 0.5635
vn -0.0767 0.5661 0.8208
vn -0.4428 -0.7749 0.4510
vn -0.0472 -0.7321 -0.6796
vn 0.7251 0.5620 0.3981
vn 0.7252 -0.6327 -0.2716
vn 0.6536 -0.0747 0.7532
vn -0.1470 -0.7630 0.6294
vn 0.5201 0.6281 -0.5788
vn 0.4420 0.6154 -0.6526
vn 0.4444 0.6904 -0.5709
vn 0.3803 0.8475 -0.3703
vn 0.5961 0.7829 -0.1782
vn 0.2819 0.8445 -0.4555
vn 0.1821 0.9645 0.1912
vn -0.6199 0.6297 -0.4681
vn 0.3241 0.9014 0.2872
vn 0.2479 0.7637 -0.5961
vn -0.4576 0.4235 -0.7819
vn 0.2863 0.6939 -0.6607
vn -0.3611 -0.7647 -0.5337
vn 0.7699 -0.4019 -0.4957
vn 0.6916 -0.6015 0.3998
vn 0.1641 0.4190 -0.8930
vn -0.6628 -0.6737 -0.3267
vn -0.0000 -0.7677 0.6408
vn -0.5796 -0.7515 0.3150
vn -0.0000 -0.8620 0.5069
vn 0.0657 -0.8552 0.5141
vn -0.3269 -0.5741 -0.7507
vn 0.8191 -0.4866 -0.3039
vn 0.1078 0.6475 -0.7544
vn 0.1718 0.5446 -0.8209
vn 0.4121 0.6029 -0.6832
vn 0.5504 0.6709 -0.4969
vn 0.5207 0.8047 -0.2853
vn 0.2837 -0.2426 0.9277
vn 0.0523 -0.3353 0.9407
vn -0.4318 -0.7048 0.5628
vn -0.0197 -0.7013 -0.7126
vn -0.0549 0.6256 0.7782
vn -0.2803 -0.7117 0.6441
vn -0.4192 -0.7429 0.5219
vn -0.3635 -0.7957 0.4845
vn -0.0652 0.3703 0.9266
vn -0.4965 -0.6908 0.5256
vn -0.5337 -0.6218 0.5732
vn 0.7251 0.5620 0.3980
vn 0.5297 0.6492 -0.5458
vn 0.4975 0.8061 -0.3204
vn 0.0522 -0.3353 0.9407
vn -0.3904 -0.6972 0.6012
vn 0.4478 -0.8187 -0.3596
vn 0.0841 -0.6807 -0.7277
vn -0.1685 0.0837 0.9821
vn 0.8919 -0.1855 0.4125
vn -0.6146 -0.7127 0.3380
vn 0.3917 0.7937 -0.4654
vt -15.710700 17.595200
vt -15.710700 17.595200
vt -15.710700 17.595200
vt -15.710700 17.595200
vt -15.710700 17.595200
vt -15.710700 17.595200
vt -15.710700 17.595200
vt -15.710700 17.595200
vt -15.710700 17.595200
vt -15.710700 17.595200
vt -15.710700 17.595200
vt -15.710700 17.595200
vt -15.710700 17.595200
vt -15.710700 17.595200
vt -15.710700 17.595200
vt -15.710700 17.595200
vt -15.710700 17.595200
vt -15.710700 17.595200
vt -15.710700 17.595200
vt -15.710700 17.595200
vt -15.710700 17.595200
vt -15.710700 17.595200
vt -15.710700 17.595200
vt -15.710700 17.595200
vt -15.710700 17.595200
vt -15.710700 17.595200
vt -15.710700 17.595200
vt -15.710700 17.595200
vt -15.710700 17.595200
vt -15.710700 17.595200
vt -15.710700 17.595200
vt -15.710700 17.595200
vt -15.710700 17.595200
vt -15.710700 17.595200
vt -15.710700 17.595200
vt -15.710700 17.595200
vt -15.710700 17.595200
vt -15.710700 17.595200
vt -15.710700 17.595200
vt -15.710700 17.595200
vt -15.710700 17.595200
vt -15.710700 17.595200
vt -15.710700 17.595200
vt -15.710700 17.595200
vt -15.710700 17.595200
vt -15.091100 17.810301
vt 0.000000 0.000000
vt -15.106100 17.841600
vt 0.000000 0.000000
vt -15.091100 17.810301
vt 0.000000 0.000000
vt -15.352000 17.576300
vt -15.471700 17.661200
vt -15.539400 17.635799
vt -15.221800 17.541800
vt -15.264100 17.633101
vt -15.256100 17.437700
vt -15.184900 17.501400
vt -15.213500 17.391100
vt -15.090600 17.617701
vt -15.120100 17.640200
vt -15.120100 17.640200
vt -15.060100 17.775200
vt 0.000000 0.000000
vt -15.156300 17.685600
vt -15.175200 17.709101
vt -15.184900 17.501400
vt -15.146900 17.475800
vt -15.213500 17.391100
vt -15.185700 17.361099
vt -15.256100 17.437700
vt -15.221800 17.541800
vt -15.352000 17.576300
vt -15.539400 17.635799
vt -15.264100 17.633101
vt -15.166000 17.807501
vt -15.957800 17.404301
vt -15.871000 17.532700
vt -15.734600 17.526501
vt -15.734600 17.526501
vt -15.971900 17.167999
vt -15.885200 17.282499
vt -15.869200 17.234501
vt -15.885200 17.282499
vt -15.033400 17.746700
vt -15.060100 17.775200
vt 0.000000 0.000000
vt -15.115000 17.777000
vt -15.166000 17.807501
vt -15.196200 17.858700
vt 0.000000 0.000000
vt -15.568200 17.703300
vt -15.629200 17.657600
vt -15.629200 17.657600
vt -15.584800 17.613300
vt -15.659100 17.627800
vt -15.660100 17.609699
vt -15.774600 17.624901
vt -15.654900 17.688101
vt -15.439900 17.686300
vt -15.583800 17.747700
vt -15.484300 17.748800
vt -15.392200 17.722799
vt -15.314400 17.380501
vt -15.297700 17.335199
vt -15.402200 17.280800
vt -15.405500 17.369499
vt -15.321500 17.416800
vt -15.458100 17.275400
vt -15.487400 17.339899
vt -15.538200 17.226299
vt -15.576500 17.282101
vt -15.618700 17.159700
vt -15.657800 17.220100
vt -15.650400 17.324301
vt -15.750100 17.254999
vt -15.747300 17.152901
vt -15.721700 17.034500
vt -15.516700 17.389400
vt -15.657800 17.220100
vt -15.576500 17.282101
vt -15.487400 17.339899
vt -15.405500 17.369499
vt -15.402200 17.280800
vt -15.414800 17.252100
vt -15.314400 17.380501
vt -15.297700 17.335199
vt -15.279800 17.306801
vt -15.175200 17.709101
vt -15.369800 17.276501
vt -15.366500 17.259600
vt -15.321500 17.416800
vt -15.260000 17.808201
vt -15.441000 17.515800
vt -15.272900 17.860100
vt -15.359200 17.854300
vt -15.260000 17.808201
vt -15.312000 17.787100
vt 0.000000 0.000000
vt -15.345900 17.740999
vt -15.384000 17.797501
vt -15.474500 17.788700
vt -15.345900 17.740999
vt -15.439900 17.686300
vt -15.613300 17.552401
vt -15.564300 17.490499
vt -15.539100 17.439501
vt -15.679600 17.470501
vt -15.766500 17.457399
vt -15.770500 17.436600
vt -15.613300 17.552401
vt -15.749600 17.587200
vt -15.857900 17.438601
vt -15.441000 17.515800
vt -15.539100 17.439501
vt -15.419200 17.418400
vt -15.650400 17.324301
vt -15.664200 17.410500
vt -15.780500 17.359699
vt -15.780500 17.359699
vt -15.664200 17.410500
vt -15.564300 17.490499
vt -15.945800 17.297100
vt -15.845200 17.402399
vt -15.369800 17.276501
vt -15.391700 17.259199
vt -15.419200 17.418400
s 1
usemtl wire_174186203
f 1/1/1 2/2/2 3/3/3 4/4/4
f 5/5/5 4/4/4 3/3/3 6/6/6
f 7/7/7 1/1/1 4/4/4 5/5/5
f 2/2/2 8/8/8 6/6/6 3/3/3
f 1/1/1 7/7/7 8/8/8 2/2/2
f 9/9/9 7/7/7 5/5/5
f 9/9/9 5/5/5 6/6/6
f 9/9/9 6/6/6 8/8/8
f 9/9/9 8/8/8 7/7/7
f 10/10/10 11/11/11 12/12/12 13/13/13
f 14/14/14 13/13/13 12/12/12 15/15/15
f 16/16/16 10/10/10 13/13/13 14/14/14
f 11/11/11 17/17/17 15/15/15 12/12/12
f 10/10/10 16/16/16 17/17/17 11/11/11
f 18/18/18 16/16/16 14/14/14
f 18/18/18 14/14/14 15/15/15
f 18/18/18 15/15/15 17/17/17
f 18/18/18 17/17/17 16/16/16
f 19/19/19 20/20/20 21/21/21 22/22/22
f 23/23/23 22/22/22 21/21/21 24/24/24
f 25/25/25 19/19/19 22/22/22 23/23/23
f 20/20/20 26/26/26 24/24/24 21/21/21
f 19/19/19 25/25/25 26/26/26 20/20/20
f 27/27/27 25/25/25 23/23/23
f 27/27/27 23/23/23 24/24/24
f 27/27/27 24/24/24 26/26/26
f 27/27/27 26/26/26 25/25/25
f 28/28/28 29/29/29 30/30/30 31/31/31
f 32/32/32 31/31/31 30/30/30 33/33/33
f 34/34/34 28/28/28 31/31/31 32/32/32
f 29/29/29 35/35/35 33/33/33 30/30/30
f 28/28/28 34/34/34 35/35/35 29/29/29
f 36/36/36 34/34/34 32/32/32
f 36/36/36 32/32/32 33/33/33
f 36/36/36 33/33/33 35/35/35
f 36/36/36 35/35/35 34/34/34
f 37/37/37 38/38/38 39/39/39 40/40/40
f 41/41/41 40/40/40 39/39/39 42/42/42
f 43/43/43 37/37/37 40/40/40 41/41/41
f 38/38/38 44/44/44 42/42/42 39/39/39
f 37/37/37 43/43/43 44/44/44 38/38/38
f 45/45/45 43/43/43 41/41/41
f 45/45/45 41/41/41 42/42/42
f 45/45/45 42/42/42 44/44/44
f 45/45/45 44/44/44 43/43/43
usemtl Material__27
f 46/47/46 47/49/47 48/51/48
f 49/52/49 50/53/50 51/54/51
f 49/52/49 52/55/52 53/56/53
f 49/52/49 54/57/54 52/55/52
f 55/58/55 52/55/52 54/57/54
f 55/58/55 54/57/54 56/59/56
f 55/58/55 57/60/57 58/62/58
f 59/63/59 60/65/60 58/62/58
f 59/63/59 61/66/61 60/65/60
f 55/58/55 62/68/62 57/60/57
f 62/67/62 63/69/63 64/71/64
f 62/67/62 64/71/64 65/72/65
f 66/73/66 65/72/65 64/71/64
f 66/73/66 67/74/67 50/53/50
f 66/73/66 68/75/68 65/72/65
f 48/50/69 47/48/70 69/76/71
f 70/77/72 71/78/73 72/79/74
f 70/77/72 73/80/75 71/78/73
f 74/81/76 75/82/77 76/83/78
f 74/81/76 76/83/78 77/84/79
f 78/86/80 79/88/81 46/46/82
f 79/88/81 80/89/83 46/46/82
f 46/46/82 80/89/83 81/90/84
f 58/62/58 52/55/52 55/58/55
f 58/62/58 60/65/60 52/55/52
f 60/65/60 61/66/61 53/56/53
f 60/65/60 53/56/53 52/55/52
f 56/59/56 62/68/62 55/58/55
f 61/66/61 59/63/59 48/50/69
f 61/66/61 48/50/69 69/76/71
f 81/90/84 69/76/71 47/48/70
f 82/92/85 50/53/50 67/74/67
f 82/92/85 51/54/51 50/53/50
f 82/92/85 83/93/86 51/54/51
f 82/92/85 67/74/67 84/94/87
f 85/95/88 51/54/51 83/93/86
f 84/94/87 67/74/67 85/95/89
f 84/94/87 85/95/89 86/96/90
f 85/95/88 83/93/86 86/96/90
f 86/96/90 83/93/86 87/98/91
f 86/96/90 87/98/91 84/94/87
f 87/98/91 83/93/86 88/99/92
f 87/98/91 88/99/92 84/94/87
f 88/99/92 82/92/85 84/94/87
f 88/99/92 83/93/86 82/92/85
f 89/100/93 50/53/50 49/52/49
f 89/100/93 49/52/49 53/56/53
f 90/101/94 50/53/50 89/100/93
f 90/101/94 89/100/93 91/102/95
f 53/56/53 92/103/96 89/100/93
f 89/100/93 92/103/96 91/102/95
f 93/104/97 56/59/56 54/57/54
f 93/104/97 94/105/98 56/59/56
f 58/62/58 57/60/57 78/85/80
f 58/62/58 78/85/80 59/63/59
f 94/105/98 93/104/97 95/106/99
f 96/107/100 95/106/99 93/104/97
f 54/57/54 49/52/49 97/108/101
f 96/107/100 93/104/97 97/108/101
f 93/104/97 54/57/54 97/108/101
f 98/109/102 95/106/99 96/107/100
f 98/109/102 96/107/100 99/110/103
f 100/111/104 98/109/102 99/110/103
f 100/111/104 99/110/103 101/112/105
f 102/113/106 100/111/104 101/112/105
f 102/113/106 101/112/105 103/114/107
f 103/114/107 101/112/105 104/115/108
f 103/114/107 104/115/108 105/116/109
f 103/114/107 105/116/109 106/117/110
f 107/118/111 102/113/106 103/114/107
f 103/114/107 106/117/110 107/118/111
f 101/112/105 108/119/112 104/115/108
f 101/112/105 99/110/103 108/119/112
f 109/120/113 106/117/110 105/116/109
f 109/120/113 100/111/104 102/113/106
f 104/115/108 109/120/113 105/116/109
f 107/118/111 109/120/113 102/113/106
f 109/120/113 107/118/111 106/117/110
f 104/115/108 110/121/114 109/120/113
f 109/120/113 110/121/114 100/111/104
f 108/119/112 110/121/114 104/115/108
f 100/111/104 110/121/114 111/122/115
f 100/111/104 111/122/115 98/109/102
f 108/119/112 111/122/115 110/121/114
f 112/123/116 98/109/102 111/122/115
f 112/123/116 113/124/117 98/109/102
f 112/123/116 114/126/118 113/124/117
f 64/71/64 115/127/119 114/126/118
f 115/127/119 113/124/117 114/126/118
f 64/71/64 63/69/63 115/127/119
f 57/61/57 62/67/62 65/72/65
f 57/61/57 65/72/65 68/75/68
f 57/61/57 79/88/81 78/86/80
f 57/61/57 116/129/120 79/88/81
f 57/61/57 68/75/68 116/129/120
f 116/129/120 80/89/83 79/88/81
f 115/127/119 117/130/121 113/124/117
f 112/123/116 118/132/122 114/126/118
f 114/126/118 118/132/122 64/71/64
f 64/71/64 118/132/122 66/73/66
f 116/129/120 119/133/123 80/89/83
f 67/74/67 66/73/66 120/134/124
f 85/95/89 67/74/67 120/134/124
f 80/89/83 121/135/125 81/90/84
f 121/135/125 80/89/83 119/133/123
f 122/136/126 121/135/125 119/133/123
f 123/137/127 69/76/71 81/90/84
f 122/136/126 123/137/127 121/135/125
f 123/137/127 81/90/84 121/135/125
f 61/66/61 69/76/71 123/137/127
f 124/138/128 123/137/127 122/136/126
f 124/138/128 119/133/123 116/129/120
f 124/138/128 61/66/61 123/137/127
f 124/138/128 122/136/126 119/133/123
f 46/47/129 81/91/129 47/49/129
f 48/51/130 47/49/130 125/139/130
f 48/51/48 59/64/131 46/47/46
f 48/51/132 125/139/132 59/64/132
f 126/140/133 53/56/53 61/66/61
f 61/66/61 124/138/128 126/140/133
f 126/140/133 92/103/96 53/56/53
f 126/140/133 124/138/128 127/141/134
f 128/142/135 92/103/96 126/140/133
f 128/142/135 126/140/133 127/141/134
f 128/142/135 129/143/136 92/103/96
f 116/129/120 129/143/136 124/138/128
f 129/143/136 68/75/68 92/103/96
f 129/143/136 127/141/134 124/138/128
f 128/142/135 127/141/134 129/143/136
f 129/143/136 116/129/120 68/75/68
f 130/144/137 66/73/66 50/53/50
f 68/75/68 130/144/137 92/103/96
f 90/101/94 91/102/95 130/144/137
f 90/101/94 130/144/137 50/53/50
f 130/144/137 68/75/68 66/73/66
f 130/144/137 91/102/95 92/103/96
f 85/95/89 120/134/124 131/145/138
f 131/145/138 120/134/124 132/146/139
f 133/147/140 132/146/139 120/134/124
f 72/79/74 131/145/138 134/148/141
f 132/146/139 134/148/141 131/145/138
f 133/147/140 134/148/141 132/146/139
f 73/80/75 135/149/142 134/148/141
f 72/79/74 134/148/141 135/149/142
f 73/80/75 134/148/141 136/151/143
f 72/79/74 86/97/90 131/145/138
f 86/97/90 73/80/75 136/151/143
f 72/79/74 137/152/144 86/97/90
f 71/78/73 137/152/144 72/79/74
f 71/78/73 73/80/75 137/152/144
f 86/97/90 137/152/144 73/80/75
f 73/80/75 138/153/145 135/149/142
f 72/79/74 138/153/145 70/77/72
f 72/79/74 135/149/142 138/153/145
f 73/80/75 70/77/72 138/153/145
f 51/54/51 139/154/146 49/52/49
f 85/95/88 139/154/146 51/54/51
f 85/95/88 136/151/143 139/154/146
f 140/155/147 108/119/112 141/156/148
f 140/155/147 141/156/148 139/154/146
f 142/157/149 108/119/112 140/155/147
f 140/155/147 134/148/141 143/158/150
f 142/157/149 140/155/147 143/158/150
f 142/157/149 143/158/150 144/159/151
f 77/84/79 105/116/152 144/159/151
f 77/84/79 76/83/78 105/116/152
f 105/116/152 76/83/78 75/82/77
f 142/157/149 144/159/151 105/116/152
f 105/116/152 75/82/77 145/160/153
f 142/157/149 105/116/152 145/160/153
f 146/161/154 134/148/141 133/147/140
f 108/119/112 146/161/154 133/147/140
f 142/157/149 145/160/153 146/161/154
f 108/119/112 142/157/149 146/161/154
f 143/158/150 134/148/141 135/150/155
f 143/158/150 135/150/155 144/159/151
f 135/150/155 134/148/141 146/161/154
f 135/150/155 146/161/154 145/160/153
f 140/155/147 147/162/156 134/148/141
f 147/162/156 139/154/146 136/151/143
f 136/151/143 134/148/141 147/162/156
f 148/163/157 74/81/76 77/84/79
f 75/82/77 74/81/76 148/163/157
f 148/163/157 149/164/158 75/82/77
f 77/84/79 149/164/158 148/163/157
f 56/59/56 63/70/63 62/68/62
f 115/128/119 63/70/63 56/59/56
f 115/128/119 56/59/56 94/105/98
f 94/105/98 117/131/121 115/128/119
f 94/105/98 95/106/99 150/165/159
f 94/105/98 150/165/159 117/131/121
f 150/165/159 95/106/99 151/166/160
f 113/124/117 117/130/121 151/166/160
f 117/131/121 150/165/159 151/166/160
f 95/106/99 113/125/117 151/166/160
f 113/125/117 95/106/99 98/109/102
f 59/64/161 78/87/161 46/47/161
f 136/151/143 85/95/88 86/97/90
f 86/97/90 85/95/89 131/145/138
f 120/134/124 66/73/66 118/132/122
f 139/154/146 97/108/101 49/52/49
f 141/156/148 108/119/112 99/110/103
f 141/156/148 96/107/100 97/108/101
f 141/156/148 99/110/103 96/107/100
f 139/154/146 141/156/148 97/108/101
f 139/154/146 147/162/156 140/155/147
f 144/159/151 135/150/155 149/164/158
f 145/160/153 149/164/158 135/150/155
f 144/159/151 149/164/158 77/84/79
f 145/160/153 75/82/77 149/164/158
f 152/167/162 111/122/115 108/119/112
f 120/134/124 118/132/122 152/167/162
f 152/167/162 112/123/116 111/122/115
f 152/167/162 118/132/122 112/123/116
f 152/167/162 108/119/112 133/147/140
f 120/134/124 152/167/162 133/147/140
